<svg id="Capa_1" enable-background="new 0 0 511.676 511.676" height="512" viewBox="0 0 511.676 511.676" width="512" xmlns="http://www.w3.org/2000/svg"><path d="m150.823 395.38h-61.875c-3.657 0-6.001-3.892-4.29-7.124l9.44-17.839v-50.925h56.725z" fill="#99bce4"/><path d="m150.823 331.492h-120.01c-12.875 0-23.313-10.438-23.313-23.313v-168.569c0-12.875 10.437-23.313 23.313-23.313h263.189c12.875 0 23.313 10.438 23.313 23.313v53.999 137.883z" fill="#e5eef8"/><path d="m130.823 205.333v126.159h20 166.491v-137.884-20h-154.767c-17.492 0-31.724 14.232-31.724 31.725z" fill="#d5e2f3"/><path d="m150.823 272.395h-115.001c-1.283 0-2.322-1.04-2.322-2.322v-125.454c0-1.283 1.04-2.322 2.322-2.322h253.17c1.283 0 2.322 1.04 2.322 2.322v48.989 76.464c0 1.283-1.04 2.322-2.322 2.322h-138.169z" fill="#05f2a7"/><path d="m162.547 173.608c-17.493 0-31.724 14.231-31.724 31.725v67.062h20 138.169c1.283 0 2.322-1.04 2.322-2.322v-76.464-20h-128.767z" fill="#13e29d"/><path d="m191.114 238.754h-20.867c-53.271 0-96.456-43.185-96.456-96.456h-37.969c-1.283 0-2.322 1.04-2.322 2.322v125.453c0 1.283 1.04 2.322 2.322 2.322h115.001 138.169c1.283 0 2.322-1.04 2.322-2.322v-31.319z" fill="#13e29d"/><path d="m7.5 297.833v10.346c0 12.875 10.437 23.313 23.313 23.313h120.01 166.491v-33.659z" fill="#c5e1ff"/><path d="m130.823 331.492h20 166.492v-33.659h-186.492z" fill="#b4d9fd"/><path d="m317.315 374.599h-166.492v-169.266c0-6.475 5.249-11.724 11.724-11.724h225.093c6.475 0 11.724 5.249 11.724 11.724v39.921 129.346h-82.049z" fill="#e5eef8"/><path d="m317.315 374.599h82.049v-129.345-16h-69.278c-15.865 0-28.771 12.907-28.771 28.771v116.574z" fill="#d5e2f3"/><path d="m317.315 363.436h-30.325-162.859c-2.426 0-4.393 1.967-4.393 4.393v11.684c0 8.763 7.104 15.866 15.866 15.866h151.386 43.096 27.523v-31.944h-40.294z" fill="#c5e1ff"/><path d="m373.364 245.254v-22.102c0-1.957-1.586-3.543-3.543-3.543h-189.455c-1.957 0-3.543 1.586-3.543 3.543v110.905c0 1.957 1.586 3.543 3.543 3.543h136.948 52.506c1.957 0 3.543-1.586 3.543-3.543v-88.803z" fill="#65daf9"/><path d="m330.086 229.254c-15.89 0-28.771 12.881-28.771 28.771v53.52h-.124c-50.776 0-91.937-41.162-91.937-91.937h-28.887c-1.957 0-3.543 1.586-3.543 3.543v110.905c0 1.957 1.586 3.543 3.543 3.543h120.948 16 52.506c1.957 0 3.543-1.586 3.543-3.543v-22.511-66.292-16h-43.278z" fill="#1acff8"/><path d="m425.648 395.38h-95.562c-7.054 0-12.772-5.718-12.772-12.772v-124.583c0-7.054 5.718-12.771 12.772-12.771h95.562c7.054 0 12.772 5.718 12.772 12.771v20.579 116.776z" fill="#e5eef8"/><path d="m415.661 267.105c-5.192 0-9.401 4.209-9.401 9.401v97.974c0 5.192 4.209 9.401 9.401 9.401h22.758v-105.277-11.499z" fill="#d5e2f3"/><path d="m402.285 272.586h-5.831c-1.49 0-2.698 1.208-2.698 2.698v3.847c0 7.023-5.694 12.717-12.717 12.717-7.023 0-12.717-5.694-12.717-12.717v-4.827c0-1.498-1.22-2.709-2.718-2.698l-20.693.154c-1.482.011-2.678 1.216-2.678 2.698v91.001c0 2.461 1.995 4.455 4.455 4.455h73.156v-94.792c0-1.502-1.226-2.714-2.727-2.698z" fill="#05f2a7"/><path d="m417.118 272.425-9.968.108c-.565 1.208-.89 2.551-.89 3.973v93.409h13.585v-94.792c0-1.502-1.226-2.715-2.727-2.698z" fill="#13e29d"/><path d="m419.845 346.988c-32.743 0-59.287-26.544-59.287-59.287v-16.057l-15.646.117c-1.482.011-2.678 1.216-2.678 2.698v91.001c0 2.461 1.995 4.455 4.455 4.455h73.156z" fill="#13e29d"/><path d="m494.775 278.604h-65.528c-5.192 0-9.401 4.209-9.401 9.401v97.974c0 5.192 4.209 9.401 9.401 9.401h65.528c5.192 0 9.401-4.209 9.401-9.401v-97.974c0-5.192-4.209-9.401-9.401-9.401z" fill="#65daf9"/><path d="m504.176 346.03c-36.316 0-65.756-29.44-65.756-65.756v-1.67h-9.173c-5.192 0-9.401 4.209-9.401 9.401v97.974c0 5.192 4.209 9.401 9.401 9.401h65.528c5.192 0 9.401-4.209 9.401-9.401z" fill="#1acff8"/><path d="m419.845 359.351v26.628c0 5.192 4.209 9.401 9.401 9.401h65.528c5.192 0 9.401-4.209 9.401-9.401v-26.628z" fill="#c5e1ff"/><path d="m494.775 271.104h-48.855v-13.079c0-11.178-9.094-20.271-20.271-20.271h-18.785v-32.421c0-10.601-8.624-19.225-19.224-19.225h-62.825v-46.498c0-16.99-13.822-30.813-30.813-30.813h-263.189c-16.99 0-30.813 13.822-30.813 30.813v168.569c0 16.99 13.823 30.813 30.813 30.813h55.785v29.563l-12.339 23.317c-1.23 2.325-1.153 5.124.204 7.377 1.356 2.253 3.794 3.631 6.425 3.631h413.887c9.319 0 16.901-7.582 16.901-16.901v-97.974c0-9.319-7.582-16.901-16.901-16.901zm1.901 16.901v63.846h-69.331v-63.846c0-1.048.853-1.901 1.901-1.901h65.528c1.049 0 1.902.853 1.902 1.901zm-65.756-29.98v13.079h-1.673c-9.319 0-16.901 7.582-16.901 16.901v74.409h-62.611v-83.19l11.089-.083c.005 11.143 9.073 20.206 20.217 20.206 10.828 0 19.695-8.556 20.194-19.262h1.051c4.142 0 7.5-3.358 7.5-7.5s-3.358-7.5-7.5-7.5h-8.529c-4.142 0-7.5 3.358-7.5 7.5v6.545c0 2.876-2.34 5.217-5.217 5.217s-5.217-2.34-5.217-5.217v-7.545c0-1.999-.798-3.915-2.216-5.323-1.419-1.408-3.357-2.17-5.339-2.177l-26.089.194c-4.121.031-7.444 3.38-7.444 7.5v98.134c0 4.142 3.358 7.5 7.5 7.5h70.111v8.564c0 .643.044 1.276.114 1.901h-82.374c-2.907 0-5.271-2.365-5.271-5.271v-124.582c0-2.907 2.365-5.271 5.271-5.271h95.563c2.906 0 5.271 2.364 5.271 5.271zm-65.056-20.271h-35.778c-11.178 0-20.271 9.094-20.271 20.271v72.074h-125.492v-102.991h181.541zm-335.051-113.957h263.189c8.719 0 15.813 7.094 15.813 15.813v46.499h-11v-43.811c0-4.142-3.358-7.5-7.5-7.5h-257.815c-4.142 0-7.5 3.358-7.5 7.5v130.098c0 4.142 3.358 7.5 7.5 7.5h40.399c4.142 0 7.5-3.358 7.5-7.5s-3.358-7.5-7.5-7.5h-32.899v-115.099h242.814v36.311h-37.566c-4.142 0-7.5 3.358-7.5 7.5s3.358 7.5 7.5 7.5h141.392c2.329 0 4.224 1.895 4.224 4.225v32.421h-11v-18.146c0-4.142-3.358-7.5-7.5-7.5h-196.541c-4.142 0-7.5 3.358-7.5 7.5v117.991c0 4.142 3.358 7.5 7.5 7.5h132.991v10.836h-151.491v-150.602c0-2.33 1.895-4.225 4.224-4.225h53.701c4.142 0 7.5-3.358 7.5-7.5s-3.358-7.5-7.5-7.5h-53.701c-10.6 0-19.224 8.624-19.224 19.225v59.563h-39.424c-4.142 0-7.5 3.358-7.5 7.5s3.358 7.5 7.5 7.5h39.424v10.438h-128.323v-150.724c0-8.72 7.094-15.813 15.813-15.813zm-15.813 184.382v-2.846h128.323v18.659h-49.225-63.285c-8.719 0-15.813-7.094-15.813-15.813zm85.727 65.746c.572-1.081.871-2.285.871-3.508v-31.425h41.726v16.944h-19.192c-6.558 0-11.894 5.335-11.894 11.894v11.684c0 2.948.554 5.767 1.555 8.366h-20.45zm34.877 13.955c-4.613 0-8.367-3.753-8.367-8.366v-8.578h182.577v11.672c0 1.826.265 3.587.72 5.271h-159.711-15.219zm359.171 0h-65.528c-.126 0-.248-.014-.367-.037-.01-.002-.02-.004-.031-.006-.858-.183-1.504-.946-1.504-1.858v-19.128h69.331v19.128c0 1.048-.853 1.901-1.901 1.901z"/><circle cx="462.011" cy="376.808" r="5.989"/></svg>
